<?xml version="1.0" encoding="UTF-8"?>
<!DOCTYPE svg PUBLIC "-//W3C//DTD SVG 1.1//EN" "http://www.w3.org/Graphics/SVG/1.1/DTD/svg11.dtd">
<!-- Creator: CorelDRAW -->
<svg xmlns="http://www.w3.org/2000/svg" xml:space="preserve" width="210mm" height="297mm" version="1.1" style="shape-rendering:geometricPrecision; text-rendering:geometricPrecision; image-rendering:optimizeQuality; fill-rule:evenodd; clip-rule:evenodd"
viewBox="0 0 21000 29700"
 xmlns:xlink="http://www.w3.org/1999/xlink"
 xmlns:xodm="http://www.corel.com/coreldraw/odm/2003">
 <defs>
  <style type="text/css">
   <![CDATA[
    .fil0 {fill:white;fill-rule:nonzero}
   ]]>
  </style>
 </defs>
 <g id="Camada_x0020_1">
  <metadata id="CorelCorpID_0Corel-Layer"/>
  <path class="fil0" d="M8302.29 25831.57l0 -13466.36c0,-363.55 -296.5,-660.06 -660.05,-660.06l-1519.5 0c-245.07,0 -455.4,-123.08 -575.44,-336.75 -120.04,-213.66 -115.75,-457.33 11.72,-666.63l4370.11 -7175.61c123.24,-202.36 326.8,-316.72 563.74,-316.72 236.94,0 440.5,114.36 563.74,316.72l4370.11 7175.61c127.47,209.3 131.76,452.97 11.72,666.63 -120.04,213.67 -330.37,336.75 -575.44,336.75l-1519.5 0c-363.55,0 -660.05,296.51 -660.05,660.06l0 13466.36c0,363.55 -296.5,660.05 -660.06,660.05l-3061.04 0c-363.56,0 -660.06,-296.5 -660.06,-660.05z"/>
 </g>
</svg>
